<svg width="19" height="22" xmlns="http://www.w3.org/2000/svg" xmlns:xlink="http://www.w3.org/1999/xlink" xmlns:svgjs="http://svgjs.com/svgjs" viewBox="0.15 0 18.7 22" fill="#212121"><svg xmlns="http://www.w3.org/2000/svg" width="19" height="22" viewBox="0.646 0.801 17.709 20.834"><path paint-order="stroke fill markers" fill-rule="evenodd" d="M8.473 21.304l-.062-.05-.43-.29a21.623 21.623 0 0 1-4.724-4.433l-.329-.43A11.146 11.146 0 0 1 .646 9.682l.005-.297a8.848 8.848 0 0 1 2.688-6.081A8.796 8.796 0 0 1 9.5.8h.03l.266.004a8.792 8.792 0 0 1 6.073 2.707 8.841 8.841 0 0 1 2.486 6.198v.106c-.053 2.75-1.392 5.594-3.875 8.221a22.056 22.056 0 0 1-3.9 3.224l-.052.043c-.301.216-.657.33-1.028.33-.37 0-.726-.114-1.027-.33zm.802-18.92A7.232 7.232 0 0 0 4.29 4.586a7.27 7.27 0 0 0-2.067 5.07l.02.371a9.57 9.57 0 0 0 1.942 5.12 19.97 19.97 0 0 0 5.107 4.796l.085.065a.19.19 0 0 0 .124.047.19.19 0 0 0 .125-.047l.088-.066a20.433 20.433 0 0 0 3.628-2.996c2.204-2.333 3.393-4.803 3.438-7.144l-.004-.345a7.27 7.27 0 0 0-2.194-5.001A7.225 7.225 0 0 0 9.525 2.38l-.25.004zM6.127 9.81A3.382 3.382 0 0 1 9.5 6.426a3.382 3.382 0 0 1 3.373 3.384A3.382 3.382 0 0 1 9.5 13.193 3.382 3.382 0 0 1 6.127 9.81zm1.576 0c0 .995.806 1.803 1.797 1.803.991 0 1.797-.808 1.797-1.803 0-.994-.806-1.803-1.797-1.803-.99 0-1.797.81-1.797 1.803z"/></svg></svg>